<mxfile host="65bd71144e">
    <diagram name="Page-1" id="U5EiNlZVxZQPIdguTWUH">
        <mxGraphModel dx="548" dy="855" grid="1" gridSize="10" guides="1" tooltips="1" connect="1" arrows="1" fold="1" page="1" pageScale="1" pageWidth="1000" pageHeight="1000" math="0" shadow="0">
            <root>
                <mxCell id="0"/>
                <mxCell id="1" parent="0"/>
                <mxCell id="B2MzfoxU3IxaTSWkORuy-3" value="" style="sketch=0;outlineConnect=0;fontColor=#232F3E;gradientColor=none;fillColor=#ED7100;strokeColor=none;dashed=0;verticalLabelPosition=bottom;verticalAlign=top;align=center;html=1;fontSize=12;fontStyle=0;aspect=fixed;pointerEvents=1;shape=mxgraph.aws4.instance2;" parent="1" vertex="1">
                    <mxGeometry x="190" y="190" width="58" height="58" as="geometry"/>
                </mxCell>
                <mxCell id="B2MzfoxU3IxaTSWkORuy-5" value="" style="image;html=1;image=img/lib/clip_art/networking/Firewall_02_128x128.png" parent="1" vertex="1">
                    <mxGeometry x="360" y="179" width="80" height="80" as="geometry"/>
                </mxCell>
                <mxCell id="B2MzfoxU3IxaTSWkORuy-6" value="" style="endArrow=classic;html=1;rounded=0;" parent="1" edge="1">
                    <mxGeometry width="50" height="50" relative="1" as="geometry">
                        <mxPoint x="350" y="230" as="sourcePoint"/>
                        <mxPoint x="260" y="230" as="targetPoint"/>
                    </mxGeometry>
                </mxCell>
                <mxCell id="B2MzfoxU3IxaTSWkORuy-7" value="" style="endArrow=classic;html=1;rounded=0;" parent="1" edge="1">
                    <mxGeometry width="50" height="50" relative="1" as="geometry">
                        <mxPoint x="540" y="230" as="sourcePoint"/>
                        <mxPoint x="450" y="230" as="targetPoint"/>
                    </mxGeometry>
                </mxCell>
                <mxCell id="B2MzfoxU3IxaTSWkORuy-8" value="" style="endArrow=classic;html=1;rounded=0;" parent="1" edge="1">
                    <mxGeometry width="50" height="50" relative="1" as="geometry">
                        <mxPoint x="260" y="210" as="sourcePoint"/>
                        <mxPoint x="350" y="210" as="targetPoint"/>
                    </mxGeometry>
                </mxCell>
                <mxCell id="B2MzfoxU3IxaTSWkORuy-9" value="" style="endArrow=classic;html=1;rounded=0;" parent="1" edge="1">
                    <mxGeometry width="50" height="50" relative="1" as="geometry">
                        <mxPoint x="450" y="210" as="sourcePoint"/>
                        <mxPoint x="540" y="210" as="targetPoint"/>
                    </mxGeometry>
                </mxCell>
                <mxCell id="B2MzfoxU3IxaTSWkORuy-12" value="" style="sketch=0;outlineConnect=0;fontColor=#232F3E;gradientColor=none;fillColor=#232F3D;strokeColor=none;dashed=0;verticalLabelPosition=bottom;verticalAlign=top;align=center;html=1;fontSize=12;fontStyle=0;aspect=fixed;pointerEvents=1;shape=mxgraph.aws4.client;" parent="1" vertex="1">
                    <mxGeometry x="560" y="190" width="61.58" height="60" as="geometry"/>
                </mxCell>
                <mxCell id="B2MzfoxU3IxaTSWkORuy-13" value="&lt;b style=&quot;font-size: 14px;&quot;&gt;CLIENT&lt;/b&gt;&lt;div style=&quot;font-size: 14px;&quot;&gt;(10.1.1.1)&lt;/div&gt;" style="text;html=1;align=center;verticalAlign=middle;whiteSpace=wrap;rounded=0;fontSize=14;" parent="1" vertex="1">
                    <mxGeometry x="560" y="269" width="60" height="30" as="geometry"/>
                </mxCell>
                <mxCell id="B2MzfoxU3IxaTSWkORuy-14" value="&lt;b style=&quot;font-size: 14px;&quot;&gt;SERVER&lt;/b&gt;&lt;div style=&quot;font-size: 14px;&quot;&gt;(10.2.1.1)&lt;/div&gt;" style="text;html=1;align=center;verticalAlign=middle;whiteSpace=wrap;rounded=0;fontSize=14;" parent="1" vertex="1">
                    <mxGeometry x="189" y="269" width="60" height="30" as="geometry"/>
                </mxCell>
                <mxCell id="B2MzfoxU3IxaTSWkORuy-17" value="80" style="text;html=1;align=left;verticalAlign=middle;whiteSpace=wrap;rounded=0;" parent="1" vertex="1">
                    <mxGeometry x="260" y="179" width="60" height="30" as="geometry"/>
                </mxCell>
                <mxCell id="B2MzfoxU3IxaTSWkORuy-20" value="61588" style="text;html=1;align=right;verticalAlign=middle;whiteSpace=wrap;rounded=0;" parent="1" vertex="1">
                    <mxGeometry x="480" y="179" width="60" height="30" as="geometry"/>
                </mxCell>
            </root>
        </mxGraphModel>
    </diagram>
</mxfile>
